<?xml version="1.0" encoding="utf-8"?>
<!-- Generator: Adobe Illustrator 22.0.0, SVG Export Plug-In . SVG Version: 6.00 Build 0)  -->
<svg version="1.1" id="Layer_1" xmlns="http://www.w3.org/2000/svg" xmlns:xlink="http://www.w3.org/1999/xlink" x="0px" y="0px"
	 viewBox="0 0 150 58.6" style="enable-background:new 0 0 150 58.6;" xml:space="preserve">
<style type="text/css">
	.st0{fill:#005CFF;}
	.st1{fill:#FFFFFF;}
</style>
<g>
	<path class="st0" d="M11.9,0h126.3c6.5,0,11.9,5.3,11.9,11.9v34.9c0,6.5-5.3,11.9-11.9,11.9H11.9C5.3,58.6,0,53.3,0,46.7V11.9
		C0,5.3,5.3,0,11.9,0z"/>
	<g>
		<path class="st1" d="M31.5,28.1c0,0,3.2-0.2,3.2-4s-2.6-5.6-6-5.6c0,0,0,0,0,0v0h-6.1h-0.2h-4.7v21.1h4.7v0h6.3v0l0,0h0
			c0,0,6.7,0.2,6.7-6.2C35.4,33.4,35.7,28.1,31.5,28.1z M27.9,22.2h0.8h0c0,0,1.5,0,1.5,2.2S29.3,27,28.3,27c0,0,0,0,0,0h-5.8v-4.7
			H27.9z M28.3,35.9L28.3,35.9c-0.1,0-0.2,0-0.3,0c0,0,0,0,0,0h-5.4v-5.6h6.1v0l0,0c0,0,2.2,0,2.2,2.9
			C30.9,35.7,29.1,35.8,28.3,35.9z"/>
		<path class="st1" d="M124.9,23.9c-8.1,0-8.1,8.1-8.1,8.1s-0.6,8.1,8.1,8.1c0,0,7.2,0.4,7.2-5.6h-3.7c0,0,0.1,2.3-3.4,2.3
			c0,0-3.7,0.2-3.7-3.7h10.9C132.2,33,133.4,23.9,124.9,23.9z M128.2,30.2h-6.9c0,0,0.5-3.3,3.7-3.3C128.2,27,128.2,30.2,128.2,30.2
			z"/>
		<polygon class="st1" points="124.9,23.9 124.9,23.9 124.9,23.9 		"/>
		<rect x="39.8" y="19.7" class="st1" width="8.7" height="2.6"/>
		<path class="st1" d="M44.4,23.9c-8.1,0-8.1,8.1-8.1,8.1S35.7,40,44.4,40c0,0,7.2,0.4,7.2-5.6h-3.7c0,0,0.1,2.3-3.4,2.3
			c0,0-3.7,0.2-3.7-3.7h10.9C51.7,33,52.9,23.9,44.4,23.9z M47.7,30.2h-6.9c0,0,0.5-3.3,3.7-3.3S47.7,30.2,47.7,30.2z"/>
		<path class="st1" d="M67.5,29.1v-0.2h0c-0.1-2.5-1.6-5-5.2-5c-2.7,0-4.1,1.7-4.7,2.6v-8h-4.3v21.1h4.3V31c0-1.9,0.5-3.8,2.9-3.8
			c2.7,0,2.7,1.6,2.7,1.6v0h0v0.9l0.1,0v9.8h4.2V29.1C67.5,29.1,67.5,29.1,67.5,29.1C67.5,29.1,67.5,29.1,67.5,29.1z"/>
		<path class="st1" d="M99.5,29.1v-0.2h0c-0.1-2.5-1.6-5-5.2-5c-2.7,0-4.1,1.7-4.7,2.6v-2.4h-4.3v15.5h4.3v-8.4c0,0,0-0.1,0-0.2
			c0-1.9,0.5-3.8,2.9-3.8c2.7,0,2.7,1.6,2.7,1.6h0v0.9l0.1,0v9.8h4.2V29.1C99.5,29.1,99.5,29.1,99.5,29.1
			C99.5,29.1,99.5,29.1,99.5,29.1z"/>
		<path class="st1" d="M111.6,33.6c0,0,0.1,3.1-2.8,3.1c-2.9,0-3.7-3.1-3.7-4.9c0-1.8,0.6-4.8,3.7-4.8c3.1,0,3,2.7,3,2.7h3.9
			c0,0,0.3-5.9-6.9-5.9c-7.1,0-7.9,5.8-7.9,8.1c0,2.3,1.2,8.2,7.8,8.2c6.6,0,7.2-5.3,7.2-6.5v0H111.6z"/>
		<path class="st1" d="M83.1,36.7v-9c0,0,0.5-3.8-6.3-3.8c-6.8,0-7.2,3.4-7.3,5.4H74c0,0-0.2-2.7,2.7-2.7c0,0,2.4-0.2,2.4,2.2
			c0,0,0,1.6-2.2,1.7c-2.2,0.1-7.9,0.1-7.9,4.7c0,0-0.1,4.8,5,4.8c0,0,3.5,0.1,5-2.1v1.6h4.7l0,0C83.9,39.6,83.1,39.2,83.1,36.7z
			 M75.7,37.2c0,0-2.5,0.1-2.5-2.1c0,0-0.2-1.7,3.3-2.2c1.4-0.1,2.1-0.2,2.7-0.9v2.8l0,0C79.1,34.8,78.8,37.2,75.7,37.2z"/>
	</g>
</g>
</svg>
