<?xml version="1.0" encoding="utf-8"?>
<!-- Generator: Adobe Illustrator 22.0.0, SVG Export Plug-In . SVG Version: 6.00 Build 0)  -->
<svg version="1.1" id="Layer_1" xmlns="http://www.w3.org/2000/svg" xmlns:xlink="http://www.w3.org/1999/xlink" x="0px" y="0px"
	 viewBox="0 0 70 70" style="enable-background:new 0 0 70 70;" xml:space="preserve">
<style type="text/css">
	.st0{fill:#2D3053;}
</style>
<path class="st0" d="M65,27.1l-29.7-10c-0.2-0.1-0.4-0.1-0.6,0L5,27.1c-0.4,0.1-0.7,0.5-0.7,0.9s0.3,0.8,0.7,0.9l13.5,4.6v15.8
	c0,0.5,0.4,1,1,1h31c0.5,0,1-0.4,1-1V33.5l6-2v10.6l-3.9,2.7c-0.1,0.1-0.2,0.2-0.2,0.4s0.1,0.3,0.2,0.4l3.9,2.7v4.1
	c0,0.3,0.3,0.6,0.6,0.6s0.6-0.3,0.6-0.6v-4.1l3.9-2.7c0.1-0.1,0.2-0.2,0.2-0.4s-0.1-0.3-0.2-0.4l-3.9-2.7v-11L65,29
	c0.4-0.1,0.7-0.5,0.7-0.9S65.5,27.3,65,27.1z M58.8,47.2l-0.6,0.4l-0.6-0.4l-2.7-1.9l2.7-1.9l0.6-0.4l0.6,0.4l2.7,1.9L58.8,47.2z
	 M51.5,31.5l-1,0.3l-1,0.3L35,37l-14.5-4.9l-1-0.3l-1-0.3L8.3,28.1l26.6-9l26.6,9L51.5,31.5z M49.5,48.3h-29V34.2L34.7,39
	c0.1,0,0.2,0.1,0.3,0.1s0.2,0,0.3-0.1l14.2-4.8V48.3z"/>
</svg>
