<?xml version="1.0" encoding="utf-8"?>
<!-- Generator: Adobe Illustrator 22.0.0, SVG Export Plug-In . SVG Version: 6.00 Build 0)  -->
<svg version="1.1" id="Layer_1" xmlns="http://www.w3.org/2000/svg" xmlns:xlink="http://www.w3.org/1999/xlink" x="0px" y="0px"
	 viewBox="0 0 70 70" style="enable-background:new 0 0 70 70;" xml:space="preserve">
<style type="text/css">
	.st0{fill:#FFFFFF;stroke:#000000;stroke-width:1.9469;stroke-linecap:round;stroke-linejoin:round;stroke-miterlimit:10;}
	.st1{fill:none;stroke:#000000;stroke-width:1.2413;stroke-linecap:round;stroke-linejoin:round;stroke-miterlimit:10;}
	.st2{fill:#FFFFFF;stroke:#000000;stroke-width:0.9631;stroke-linecap:round;stroke-linejoin:round;stroke-miterlimit:10;}
	.st3{fill:#2D3053;}
	.st4{fill:#FFFFFF;stroke:#2D3053;stroke-linecap:round;stroke-linejoin:round;stroke-miterlimit:10;}
	.st5{fill:none;stroke:#2D3053;stroke-width:1.5;stroke-linecap:round;stroke-linejoin:round;stroke-miterlimit:10;}
	.st6{fill:#FFFFFF;stroke:#FFFFFF;stroke-width:3.1755;stroke-miterlimit:10;}
	.st7{fill:#FFFFFF;stroke:#2D3053;stroke-width:1.5878;stroke-linecap:round;stroke-linejoin:round;stroke-miterlimit:10;}
	.st8{fill:#8A93FF;}
	.st9{fill:none;stroke:#2D3053;stroke-width:2.2806;stroke-miterlimit:10;}
	.st10{fill:#FFFFFF;stroke:#2D3053;stroke-width:2;stroke-linecap:round;stroke-linejoin:round;stroke-miterlimit:10;}
	.st11{fill:#FFFFFF;stroke:#2D3053;stroke-width:1.5;stroke-miterlimit:10;}
	.st12{fill:#FFFFFF;stroke:#000000;stroke-width:2;stroke-miterlimit:10;}
	.st13{fill:#FFFFFF;stroke:#000000;stroke-width:1.743;stroke-miterlimit:10;}
	.st14{fill:#878787;}
	.st15{fill:none;}
	.st16{fill:#5E64AD;}
</style>
<rect x="-65.7" y="71.7" class="st0" width="31" height="21.4"/>
<path class="st0" d="M-50.2,81.9l-29.7-10l29.7-10l29.7,10L-50.2,81.9z"/>
<line class="st1" x1="-27" y1="74.3" x2="-27" y2="105.3"/>
<path class="st2" d="M-27,101l-4.2-3l4.2-3l4.2,3L-27,101z"/>
<path class="st3" d="M137.2,33.5l-29.7-10c-0.2-0.1-0.4-0.1-0.6,0l-29.7,10c-0.4,0.1-0.7,0.5-0.7,0.9s0.3,0.8,0.7,0.9l13.5,4.6v15.8
	c0,0.5,0.4,1,1,1h31c0.5,0,1-0.4,1-1V39.9l6-2v10.6l-3.9,2.7c-0.1,0.1-0.2,0.2-0.2,0.4s0.1,0.3,0.2,0.4l3.9,2.7v4.1
	c0,0.3,0.3,0.6,0.6,0.6s0.6-0.3,0.6-0.6v-4.1l3.9-2.7c0.1-0.1,0.2-0.2,0.2-0.4s-0.1-0.3-0.2-0.4l-3.9-2.7v-11l6.2-2.1
	c0.4-0.1,0.7-0.5,0.7-0.9S137.6,33.7,137.2,33.5z M131,53.6l-0.6,0.4l-0.6-0.4l-2.7-1.9l2.7-1.9l0.6-0.4l0.6,0.4l2.7,1.9L131,53.6z
	 M123.7,37.9l-1,0.3l-1,0.3l-14.5,4.9l-14.5-4.9l-1-0.3l-1-0.3l-10.2-3.4l26.6-9l26.6,9L123.7,37.9z M121.7,54.7h-29V40.6l14.2,4.8
	c0.1,0,0.2,0.1,0.3,0.1s0.2,0,0.3-0.1l14.2-4.8V54.7z"/>
<path class="st3" d="M-11.4,13.2h-5.2c-0.6,0-1-0.5-1-1v-3c0-0.6,0.5-1,1-1h5.2c0.6,0,1,0.5,1,1v3C-10.4,12.7-10.8,13.2-11.4,13.2z"
	/>
<rect x="-18" y="11.3" class="st4" width="8.1" height="17.3"/>
<polygon class="st4" points="-14,35.6 -10,28.7 -18,28.7 "/>
<rect x="68.1" y="88.1" class="st5" width="34.6" height="39.3"/>
<g>
	<line class="st5" x1="72.8" y1="96.5" x2="98" y2="96.5"/>
	<line class="st5" x1="72.8" y1="101.2" x2="98" y2="101.2"/>
	<line class="st5" x1="72.8" y1="105.9" x2="98" y2="105.9"/>
	<line class="st5" x1="72.8" y1="110.6" x2="98" y2="110.6"/>
	<line class="st5" x1="72.8" y1="115.3" x2="98" y2="115.3"/>
	<line class="st5" x1="72.8" y1="120" x2="98" y2="120"/>
</g>
<path class="st6" d="M105.6,105.9c0.1-0.2,0.1-0.5-0.2-0.7L105,105l0.8-1.3c0.3-0.5,0.1-1.2-0.4-1.5l-4.7-2.9
	c-0.5-0.3-1.2-0.1-1.5,0.4l-0.8,1.3l-0.4-0.2c-0.2-0.1-0.5-0.1-0.7,0.2L88,116.5c-0.1,0.1-0.1,0.2,0,0.3s-0.1,0.1-0.1,0.2l-0.2,8.5
	c0,0.2,0.1,0.4,0.2,0.5c0.1,0.1,0.3,0.1,0.5,0l7.5-4.1c0.1,0,0.1-0.1,0.2-0.1c0.1,0,0.2-0.1,0.3-0.2L105.6,105.9z"/>
<g>
	<path class="st3" d="M102.6,106.8l-4.7-2.9c-0.5-0.3-0.6-1-0.4-1.5l1.6-2.7c0.3-0.5,1-0.6,1.5-0.4l4.7,2.9c0.5,0.3,0.6,1,0.4,1.5
		l-1.6,2.7C103.7,107,103.1,107.1,102.6,106.8z"/>
	
		<rect x="87.5" y="107.1" transform="matrix(0.5216 -0.8532 0.8532 0.5216 -48.8222 135.7954)" class="st7" width="18.3" height="8.6"/>
	<polygon class="st7" points="87.9,125.7 95.3,121.7 88.1,117.2 	"/>
</g>
<g>
	<path class="st3" d="M139.1-11.6H106v-37.8h33.1v12.5c0.4-0.3,1-0.4,1.5-0.3v-13c0-0.4-0.3-0.8-0.8-0.8h-34.6
		c-0.4,0-0.8,0.3-0.8,0.8v39.3c0,0.4,0.3,0.8,0.8,0.8h34.6c0.4,0,0.8-0.3,0.8-0.8v-9.4l-1.5,1.5V-11.6z"/>
	<path class="st3" d="M135.2-42.5h-25.3c-0.4,0-0.8,0.3-0.8,0.8s0.3,0.8,0.8,0.8h25.3c0.4,0,0.8-0.3,0.8-0.8S135.6-42.5,135.2-42.5z
		"/>
	<path class="st3" d="M135.9-37c0-0.4-0.3-0.8-0.8-0.8h-25.2c-0.4,0-0.8,0.3-0.8,0.8s0.3,0.8,0.8,0.8h25.3
		C135.6-36.3,135.9-36.6,135.9-37z"/>
	<path class="st3" d="M135.2-33.1L135.2-33.1h-25.3c-0.4,0-0.8,0.3-0.8,0.8s0.3,0.8,0.8,0.8h23.8L135.2-33.1z"/>
	<path class="st3" d="M130.6-28.4h-20.7c-0.4,0-0.8,0.3-0.8,0.8s0.3,0.8,0.8,0.8H129L130.6-28.4z"/>
	<path class="st3" d="M125.2-22.5c0.1-0.2,0.1-0.4,0.2-0.5c0.1-0.3,0.3-0.5,0.4-0.7l0,0h-15.9c-0.4,0-0.8,0.3-0.8,0.8
		s0.3,0.8,0.8,0.8h15.2L125.2-22.5z"/>
	<path class="st3" d="M109.2-18.2c0,0.4,0.3,0.8,0.8,0.8h13.9l0.4-1.5h-14.4C109.5-19,109.2-18.7,109.2-18.2z"/>
	<path class="st3" d="M147.3-32.2l-3.9-3.9c-0.4-0.4-1.1-0.4-1.5,0l0,0l-0.9,0.9l-0.3-0.3l0,0c-0.1-0.1-0.4-0.2-0.6-0.2
		s-0.4,0.1-0.6,0.2l-0.4,0.4l-6.7,6.7l-1.5,1.5l-3.2,3.2l-1.1,1.2c-0.1,0.1-0.1,0.2-0.2,0.3l0,0c0,0.1-0.1,0.1-0.1,0.2l-0.8,3
		l-0.5,1.5l-1,3.7c-0.1,0.3,0,0.6,0.2,0.8s0.4,0.2,0.6,0.2c0.1,0,0.1,0,0.2,0l8.2-2.2c0.1,0,0.1-0.1,0.2-0.1c0.1,0,0.3-0.1,0.4-0.2
		l5.3-5.3l1.5-1.5l6.1-6.1c0.3-0.3,0.3-0.6,0.1-0.9l0,0c0-0.1-0.1-0.1-0.1-0.2l-0.3-0.3l0,0l0.9-0.9
		C147.7-31.1,147.7-31.8,147.3-32.2z M144.3-28.1l-3.7,3.7l-1.5,1.5l-3.9,3.9l-1.5,1.5l-0.5,0.5l-0.2-0.2l-0.3-0.3l-1.5-1.5
		l-2.7-2.7l-0.2-0.2l0.2-0.2l1.5-1.5l3.2-3.2l1.5-1.5l4.4-4.4l0.2-0.2l0.7-0.7l0.2,0.2l0.4,0.4l3.5,3.5l0.9,0.9L144.3-28.1z
		 M126.7-17.5l0.4-1.5l0.3-1.2l0.3,0.3l0.9,0.9l1.5,1.5l1,1l0.3,0.3l-5.5,1.5L126.7-17.5z"/>
</g>
<path class="st8" d="M-8.4-53.3c0-0.1,0-0.2-0.1-0.3v-0.1c0,0,0,0,0-0.1s-0.1-0.1-0.2-0.2l0,0c-0.1-0.1-0.2-0.1-0.3-0.2h-0.1
	c-0.1,0-0.2-0.1-0.3-0.1h-9.9v-2.2c0-2.1-1.7-3.8-3.8-3.8h-13.6c-2.1,0-3.8,1.7-3.8,3.8v2.2h-9.9c-0.1,0-0.2,0-0.3,0.1h-0.1
	c-0.2,0.1-0.3,0.2-0.4,0.4c0,0,0,0,0,0.1v0.1c0,0.1-0.1,0.2-0.1,0.3l0,0v26.5c0,0.6,0.4,1,1,1h41.1c0.6,0,1-0.4,1-1L-8.4-53.3
	L-8.4-53.3z M-38.3-56.5c0-0.9,0.7-1.5,1.5-1.5h13.6c0.9,0,1.5,0.7,1.5,1.5v2.2h-16.6V-56.5z M-11.1-52.3L-17.7-41h-8.7v-0.7
	c0-1.9-1.5-3.4-3.4-3.4s-3.4,1.5-3.4,3.4v0.7h-8.7l-6.6-11.3H-11.1z M-28-41.7v5.2c0,1.1-0.9,1.9-1.9,1.9c-1.1,0-1.9-0.9-1.9-1.9
	v-5.2c0-1.1,0.9-1.9,1.9-1.9C-28.8-43.7-28-42.8-28-41.7z M-10.4-27.8h-39v-21.8l5.9,10.1c0.2,0.3,0.5,0.5,0.9,0.5h9.3v2.5
	c0,1.9,1.5,3.4,3.4,3.4s3.4-1.5,3.4-3.4V-39h9.3c0.4,0,0.7-0.2,0.9-0.5l5.9-10.1C-10.4-49.6-10.4-27.8-10.4-27.8z"/>
<g>
	<path class="st9" d="M157.9,96.4h-13.6c-1.5,0-2.7-1.2-2.7-2.7v-5.5c0-1.5,1.2-2.7,2.7-2.7h13.6c1.5,0,2.7,1.2,2.7,2.7v5.5
		C160.6,95.2,159.3,96.4,157.9,96.4z"/>
	<rect x="130.5" y="91.5" class="st10" width="41.1" height="26.5"/>
	<polygon class="st10" points="163.8,104.8 138.3,104.8 130.5,91.5 171.6,91.5 	"/>
	<path class="st11" d="M151.1,110.9L151.1,110.9c-1.5,0-2.7-1.2-2.7-2.7V103c0-1.5,1.2-2.7,2.7-2.7l0,0c1.5,0,2.7,1.2,2.7,2.7v5.2
		C153.8,109.7,152.5,110.9,151.1,110.9z"/>
</g>
<path class="st12" d="M57.8-24.8h-34c-1.5,0-2.5-1.3-2.3-3l3.1-24c0.2-1.6,1.6-3,3-3h34c1.5,0,2.5,1.3,2.3,3l-3.1,24
	C60.6-26.2,59.3-24.8,57.8-24.8z"/>
<path class="st13" d="M35.2-48.8H19.1L17.5-55c-0.3-1.2,0.4-2.2,1.6-2.2H31c1.2,0,2.4,1,2.7,2.2L35.2-48.8z"/>
<path class="st12" d="M57.9-24.7H24.2c-1.4,0-2.9-1.2-3.3-2.7L15.5-49c-0.4-1.5,0.5-2.7,1.9-2.7h33.7c1.4,0,2.9,1.2,3.3,2.7
	l5.4,21.6C60.2-25.9,59.3-24.7,57.9-24.7z"/>
<path class="st14" d="M59.6,21.3c-0.6-0.7-1.5-1.1-2.4-1.1H29.8c-0.6-1.3-1.9-2.3-3.3-2.3l0,0H14.6c-0.8,0-1.5,0.3-2,0.9
	s-0.6,1.5-0.4,2.3l0.6,2.3c-0.8,0.1-1.6,0.5-2.1,1.1c-0.6,0.7-0.8,1.8-0.5,2.8l5.4,21.6c0.5,1.9,2.3,3.4,4.2,3.4l0,0h33.7
	c1,0,1.8-0.4,2.4-1.1c0,0,0,0,0-0.1c0.8-0.7,1.3-1.7,1.5-2.8l3.1-24C60.6,23.2,60.3,22.1,59.6,21.3z M12.2,25.7
	c0.2-0.2,0.5-0.4,0.8-0.4h0.2h0.9H15h4h1h1h8.2h0.9H31h15.6l0,0c1,0,2.1,0.9,2.3,1.9l5.4,21.6c0.1,0.4,0.1,0.7-0.1,0.9
	c0,0,0,0.1-0.1,0.1c-0.2,0.2-0.5,0.4-0.8,0.4H19.6l0,0c-1,0-2.1-0.9-2.3-1.9L17,47.2l-0.7-2.7L12,26.8C11.9,26.4,12,26,12.2,25.7z
	 M26.4,19.7c0.4,0,0.9,0.2,1.3,0.6c0.3,0.3,0.5,0.6,0.6,0.9v0.1l0.2,1l0.3,1.2h-7.3h-1.1h-1.1h-4.9l-0.7-2.6c-0.1-0.3,0-0.6,0.1-0.8
	c0.2-0.2,0.4-0.3,0.6-0.3L26.4,19.7L26.4,19.7z M58.1,22.6c0.3,0.3,0.4,0.9,0.4,1.4l-2.8,21.7l-4.7-19c-0.5-1.9-2.3-3.4-4.2-3.4l0,0
	H30.7l-0.3-1.2h26.9C57.7,22.2,58,22.5,58.1,22.6z"/>
<g>
	<polygon class="st15" points="42.1,140.5 41.7,140.2 41.1,139.8 41.1,140.5 41.1,142 41,145.5 45.9,142.8 45.7,142.6 44.5,142 	"/>
	<polygon class="st15" points="51.3,124.3 50.3,123.7 49.7,124.6 48.7,126.3 47.7,127.8 45.8,131 44.9,132.5 42.9,135.8 42,137.3 
		41.6,137.9 41.8,138.1 45.7,140.5 47.4,141.5 47.6,141.6 48.3,140.5 50.2,137.3 50.9,136.1 54.2,130.7 55.7,128.3 55.8,128.1 
		56.3,127.3 55.7,127 55.1,126.6 54.2,126.1 	"/>
	<g>
		<path class="st16" d="M54.2,147.8H42.7l-1.3,0.7c-0.3,0.2-0.7,0.3-1.1,0.3c-0.4,0-0.7-0.1-1.1-0.3c-0.3-0.2-0.5-0.5-0.7-0.7H21.1
			V110h33.1v9.3l1.5,0.9v-11c0-0.4-0.3-0.8-0.8-0.8H20.4c-0.4,0-0.8,0.3-0.8,0.8v39.3c0,0.4,0.3,0.8,0.8,0.8H55
			c0.4,0,0.8-0.3,0.8-0.8v-14.8l-1.5,2.5V147.8z"/>
		<path class="st16" d="M51,117.7c0-0.4-0.3-0.8-0.8-0.8H25c-0.4,0-0.8,0.3-0.8,0.8s0.3,0.8,0.8,0.8h25.2
			C50.7,118.5,51,118.1,51,117.7z"/>
		<path class="st16" d="M48.2,121.7H25c-0.4,0-0.8,0.3-0.8,0.8s0.3,0.8,0.8,0.8h22.2L48.2,121.7z"/>
		<path class="st16" d="M45.3,126.3H25c-0.4,0-0.8,0.3-0.8,0.8s0.3,0.8,0.8,0.8h19.3L45.3,126.3z"/>
		<path class="st16" d="M42.4,131H25c-0.4,0-0.8,0.3-0.8,0.8s0.3,0.8,0.8,0.8h16.5L42.4,131z"/>
		<path class="st16" d="M38.8,136.9l0.7-1.2H25c-0.4,0-0.8,0.3-0.8,0.8s0.3,0.8,0.8,0.8h13.6C38.7,137.1,38.8,137,38.8,136.9z"/>
		<path class="st16" d="M24.3,141.2c0,0.4,0.3,0.8,0.8,0.8h13.4l0-1.5H25C24.6,140.5,24.3,140.8,24.3,141.2z"/>
		<path class="st16" d="M58.1,126.9c0-0.2-0.2-0.4-0.4-0.5l-0.5-0.3l-0.1,0l0.6-1.1c0.3-0.5,0.1-1.2-0.4-1.5l-1.9-1.1l-1.5-0.9
			l-1.3-0.8c-0.3-0.2-0.8-0.2-1.1,0c-0.1,0.1-0.3,0.2-0.3,0.3l-0.6,0.9l-0.1,0.1l-0.3-0.2c-0.2-0.1-0.4-0.1-0.6-0.1
			s-0.4,0.2-0.5,0.4l-0.6,1l-2,3.2l-0.9,1.5l-2,3.2l-0.9,1.5l-2,3.2l-0.9,1.5l-0.3,0.5c0,0,0,0.1-0.1,0.2c-0.1,0.1-0.2,0.3-0.2,0.5
			l-0.1,2.1l0,1.5l-0.1,4.9c0,0.3,0.1,0.6,0.4,0.7c0.1,0.1,0.3,0.1,0.4,0.1c0.1,0,0.3,0,0.4-0.1l7.4-4c0,0,0.1-0.1,0.1-0.1
			c0,0,0,0,0,0c0.2,0,0.4-0.2,0.5-0.4l0.7-1.1l0.9-1.5l4.1-6.7l1.5-2.5l2.3-3.8C58.2,127.3,58.2,127.1,58.1,126.9z M50.9,136.1
			l-0.7,1.1l-2,3.2l-0.7,1.1l-0.1-0.1l-1.8-1.1l-3.9-2.4l-0.3-0.2l0.4-0.7l0.9-1.5l2-3.2l0.9-1.5l2-3.2l0.9-1.5l1.1-1.7l0.6-0.9
			l1,0.6l2.9,1.7l0.9,0.6l0.6,0.3l0.6,0.4l-0.4,0.7l-0.1,0.2l-1.5,2.5L50.9,136.1z M45.9,142.8l-5,2.7l0.1-3.6l0-1.5l0-0.6l0.5,0.3
			l0.5,0.3l2.4,1.5l1.1,0.7L45.9,142.8z"/>
	</g>
</g>
</svg>
