<?xml version="1.0" encoding="utf-8"?>
<!-- Generator: Adobe Illustrator 22.0.0, SVG Export Plug-In . SVG Version: 6.00 Build 0)  -->
<svg version="1.1" id="Layer_1" xmlns="http://www.w3.org/2000/svg" xmlns:xlink="http://www.w3.org/1999/xlink" x="0px" y="0px"
	 viewBox="0 0 70 70" style="enable-background:new 0 0 70 70;" xml:space="preserve">
<style type="text/css">
	.st0{fill:#E6E6E6;}
</style>
<path class="st0" d="M59.4,21.2c-0.6-0.7-1.5-1.1-2.4-1.1H29.5c-0.6-1.3-1.9-2.3-3.3-2.3c0,0,0,0,0,0l-11.9,0c-0.8,0-1.5,0.3-2,0.9
	c-0.5,0.6-0.6,1.5-0.4,2.3l0.6,2.3c-0.8,0.1-1.6,0.5-2.1,1.1c-0.6,0.7-0.8,1.8-0.5,2.8l5.4,21.6c0.5,1.9,2.3,3.4,4.2,3.4
	c0,0,0,0,0,0l33.7,0c1,0,1.8-0.4,2.4-1.1c0,0,0,0,0-0.1c0.8-0.7,1.3-1.7,1.5-2.8l3.1-24C60.4,23.1,60.1,22,59.4,21.2z M11.9,25.6
	c0.2-0.2,0.5-0.4,0.8-0.4l0.2,0l0.9,0l0.9,0l4,0l1,0l1,0l8.2,0l0.9,0l0.9,0l15.6,0c0,0,0,0,0,0c1,0,2.1,0.9,2.3,1.9l5.4,21.6
	c0.1,0.4,0.1,0.7-0.1,0.9c0,0,0,0.1-0.1,0.1c-0.2,0.2-0.5,0.4-0.8,0.4l-33.7,0c0,0,0,0,0,0c-1,0-2.1-0.9-2.3-1.9l-0.3-1.1l-0.7-2.7
	l-4.5-17.9C11.7,26.3,11.7,25.9,11.9,25.6z M26.2,19.5c0.4,0,0.9,0.2,1.3,0.6c0.3,0.3,0.5,0.6,0.6,0.9l0,0.1l0.2,1l0.3,1.2l-7.3,0
	l-1.1,0l-1.1,0l-4.9,0l-0.7-2.6c-0.1-0.3,0-0.6,0.1-0.8c0.2-0.2,0.4-0.3,0.6-0.3L26.2,19.5C26.2,19.5,26.2,19.5,26.2,19.5z
	 M57.9,22.5c0.3,0.3,0.4,0.9,0.4,1.4l-2.8,21.7l-4.7-19c-0.5-1.9-2.3-3.4-4.2-3.4c0,0,0,0,0,0l-16.1,0l-0.3-1.2H57
	C57.4,22.1,57.7,22.3,57.9,22.5z"/>
</svg>
