<?xml version="1.0" encoding="utf-8"?>
<!-- Generator: Adobe Illustrator 22.0.0, SVG Export Plug-In . SVG Version: 6.00 Build 0)  -->
<svg version="1.1" id="Layer_1" xmlns="http://www.w3.org/2000/svg" xmlns:xlink="http://www.w3.org/1999/xlink" x="0px" y="0px"
	 viewBox="0 0 70 70" style="enable-background:new 0 0 70 70;" xml:space="preserve">
<style type="text/css">
	.st0{fill:#2D3053;}
</style>
<g>
	<g>
		<path class="st0" d="M50.3,53.9H38.9l-1.3,0.7c-0.3,0.2-0.7,0.3-1.1,0.3c-0.4,0-0.7-0.1-1.1-0.3c-0.3-0.2-0.5-0.5-0.7-0.7H17.2
			V16.1h33.1v9.3l1.5,0.9v-11c0-0.4-0.3-0.8-0.8-0.8H16.5c-0.4,0-0.8,0.3-0.8,0.8v39.3c0,0.4,0.3,0.8,0.8,0.8h34.6
			c0.4,0,0.8-0.3,0.8-0.8V39.8l-1.5,2.5V53.9z"/>
		<path class="st0" d="M47.1,23.8c0-0.4-0.3-0.8-0.8-0.8H21.2c-0.4,0-0.8,0.3-0.8,0.8s0.3,0.8,0.8,0.8h25.2
			C46.8,24.5,47.1,24.2,47.1,23.8z"/>
		<path class="st0" d="M44.3,27.7H21.2c-0.4,0-0.8,0.3-0.8,0.8s0.3,0.8,0.8,0.8h22.2L44.3,27.7z"/>
		<path class="st0" d="M41.4,32.4H21.2c-0.4,0-0.8,0.3-0.8,0.8s0.3,0.8,0.8,0.8h19.3L41.4,32.4z"/>
		<path class="st0" d="M38.5,37.1H21.2c-0.4,0-0.8,0.3-0.8,0.8s0.3,0.8,0.8,0.8h16.5L38.5,37.1z"/>
		<path class="st0" d="M35,43l0.7-1.2H21.2c-0.4,0-0.8,0.3-0.8,0.8s0.3,0.8,0.8,0.8h13.6C34.8,43.2,34.9,43.1,35,43z"/>
		<path class="st0" d="M20.4,47.3c0,0.4,0.3,0.8,0.8,0.8h13.4l0-1.5H21.2C20.8,46.5,20.4,46.8,20.4,47.3z"/>
		<path class="st0" d="M54.3,32.9c0-0.2-0.2-0.4-0.4-0.5l-0.5-0.3l-0.1,0l0.6-1.1c0.3-0.5,0.1-1.2-0.4-1.5l-1.9-1.1l-1.5-0.9
			L49,26.7c-0.3-0.2-0.8-0.2-1.1,0c-0.1,0.1-0.3,0.2-0.3,0.3L47,28l-0.1,0.1L46.6,28c-0.2-0.1-0.4-0.1-0.6-0.1s-0.4,0.2-0.5,0.4
			l-0.6,1l-2,3.2L42,33.9l-2,3.2l-0.9,1.5l-2,3.2l-0.9,1.5l-0.3,0.5c0,0,0,0.1-0.1,0.2c-0.1,0.1-0.2,0.3-0.2,0.5l-0.1,2.1l0,1.5
			l-0.1,4.9c0,0.3,0.1,0.6,0.4,0.7c0.1,0.1,0.3,0.1,0.4,0.1c0.1,0,0.3,0,0.4-0.1l7.4-4c0,0,0.1-0.1,0.1-0.1c0,0,0,0,0,0
			c0.2,0,0.4-0.2,0.5-0.4l0.7-1.1l0.9-1.5l4.1-6.7l1.5-2.5l2.3-3.8C54.3,33.4,54.3,33.1,54.3,32.9z M47,42.2l-0.7,1.1l-2,3.2
			l-0.7,1.1l-0.1-0.1l-1.8-1.1L38,44.1L37.7,44l0.4-0.7l0.9-1.5l2-3.2l0.9-1.5l2-3.2l0.9-1.5l1.1-1.7l0.6-0.9l1,0.6l2.9,1.7l0.9,0.6
			l0.6,0.3l0.6,0.4L52,34.1l-0.1,0.2l-1.5,2.5L47,42.2z M42.1,48.9l-5,2.7l0.1-3.6l0-1.5l0-0.6l0.5,0.3l0.5,0.3l2.4,1.5l1.1,0.7
			L42.1,48.9z"/>
	</g>
</g>
</svg>
