<?xml version="1.0" encoding="utf-8"?>
<!-- Generator: Adobe Illustrator 22.0.0, SVG Export Plug-In . SVG Version: 6.00 Build 0)  -->
<svg version="1.1" id="Layer_1" xmlns="http://www.w3.org/2000/svg" xmlns:xlink="http://www.w3.org/1999/xlink" x="0px" y="0px"
	 viewBox="0 0 700 595.3" style="enable-background:new 0 0 700 595.3;" xml:space="preserve">
<style type="text/css">
	.st0{display:none;}
	.st1{display:inline;}
	.st2{font-family:'ArialMT';}
	.st3{font-size:29.0672px;}
	.st4{fill:url(#SVGID_1_);}
	.st5{fill:url(#SVGID_2_);}
	.st6{fill:url(#SVGID_3_);}
	.st7{fill:url(#SVGID_4_);}
	.st8{fill:url(#SVGID_5_);}
	.st9{fill:url(#SVGID_6_);}
	.st10{fill:url(#SVGID_7_);}
	.st11{fill:url(#SVGID_8_);}
	.st12{fill:url(#SVGID_9_);}
	.st13{opacity:0.6;fill:url(#SVGID_10_);}
	.st14{opacity:0.4;fill:url(#SVGID_11_);}
	.st15{opacity:0.8;fill:url(#SVGID_12_);}
	.st16{opacity:0.2;fill:url(#SVGID_13_);}
	.st17{fill:url(#SVGID_14_);}
	.st18{fill:url(#SVGID_15_);}
	.st19{fill:url(#SVGID_16_);}
</style>
<g id="Layer_4" class="st0">
</g>
<g id="Layer_3" class="st0">
</g>
<g id="Layer_2_1_" class="st0">
	<text transform="matrix(1.1766 0 0 1 179.1055 18.3687)" class="st1 st2 st3">1024x139</text>
	<text transform="matrix(1.1766 0 0 1 145.9365 658.9395)" class="st2 st3" style="display:inline;fill:#FFFFFF;">1024x139 </text>
</g>
<g>
	
		<linearGradient id="SVGID_1_" gradientUnits="userSpaceOnUse" x1="-346.7469" y1="260.183" x2="780.5442" y2="260.183" gradientTransform="matrix(0.9533 -0.302 0.302 0.9533 -73.4971 119.2713)">
		<stop  offset="0" style="stop-color:#2BCC38"/>
		<stop  offset="1" style="stop-color:#0B6CA3"/>
	</linearGradient>
	<rect x="-276.3" y="-23.6" class="st4" width="976.3" height="650.9"/>
	
		<linearGradient id="SVGID_2_" gradientUnits="userSpaceOnUse" x1="2763.741" y1="-45.1477" x2="2786.2107" y2="-45.1477" gradientTransform="matrix(-0.703 0.7112 -0.7112 -0.703 2610.2461 -2021.4948)">
		<stop  offset="0" style="stop-color:#2BCC38"/>
		<stop  offset="1" style="stop-color:#0B6CA3"/>
	</linearGradient>
	<path class="st5" d="M700-23.6h-32C679-14.1,689.7-4,700,6.5V-23.6z"/>
	
		<linearGradient id="SVGID_3_" gradientUnits="userSpaceOnUse" x1="246.2279" y1="519.1292" x2="853.5684" y2="519.1292" gradientTransform="matrix(-0.2372 0.9715 -0.9715 -0.2372 907.4816 -118.3454)">
		<stop  offset="0" style="stop-color:#2BCC38"/>
		<stop  offset="1" style="stop-color:#0B6CA3"/>
	</linearGradient>
	<path class="st6" d="M406.1,370.1C378,295.7,318.4,245.3,254,219.6c-33.6-13-72.6-29.3-82.9-74c-10.6-46,10.6-88.7,36.3-121.6
		c14.9-19,31.7-34.8,49.9-47.6h-73.1c-64,62.7-106,159.1-70.3,253.4c23.6,62.2,86.3,59.4,136,65.5c49.7,5.7,93.5,43.1,119.2,95.6
		c36.7,75.1,27.7,161.5-6.7,236.3h34.4C430.4,547.6,438.7,455.4,406.1,370.1z"/>
	
		<linearGradient id="SVGID_4_" gradientUnits="userSpaceOnUse" x1="1271.3502" y1="-383.7563" x2="1756.1334" y2="-383.7563" gradientTransform="matrix(8.800000e-02 -0.9961 0.9961 8.800000e-02 846.9549 1934.3027)">
		<stop  offset="0" style="stop-color:#2BCC38"/>
		<stop  offset="1" style="stop-color:#0B6CA3"/>
	</linearGradient>
	<path class="st7" d="M549.6,145.2c-30.5-1.6-37,41.1-32.9,71.2c10.3,76.9,21.9,149.7,19.5,225.8c-1.8,64.4-14.7,126.3-37.8,185.1
		h39.7c30.3-75.8,48.4-159.1,60.8-245.3c4.5-29.3,12-76.9,43.5-68.7c26.1,6.7,43.9,27.8,57.6,53.5V259.8
		C662,199.6,613.1,148.4,549.6,145.2z"/>
	
		<linearGradient id="SVGID_5_" gradientUnits="userSpaceOnUse" x1="1846.2438" y1="705.858" x2="2219.7903" y2="705.858" gradientTransform="matrix(-0.9404 0.34 -0.34 -0.9404 2698.511 279.4792)">
		<stop  offset="0" style="stop-color:#2BCC38"/>
		<stop  offset="1" style="stop-color:#0B6CA3"/>
	</linearGradient>
	<path class="st8" d="M662.3,138.7c-46.6-46.4-96.9-81.4-157.2-93.2c-39.1-7.7-96.3-12.2-111,41.1c-6.2,22,2.7,43.9,12,63.1
		c33.2,68.7,65.1,132.6,81.5,209.9c19.1,91.5,8.4,183.7-23.7,267.7h34.5c23.1-58.8,36-120.7,37.8-185.1
		c2.4-76.1-9.3-148.9-19.5-225.8c-4.1-30.1,2.4-72.8,32.9-71.2c63.5,3.2,112.4,54.4,150.4,114.6v-78.1
		C688.6,166.7,676.1,152.3,662.3,138.7z"/>
	
		<linearGradient id="SVGID_6_" gradientUnits="userSpaceOnUse" x1="598.3824" y1="1172.3732" x2="831.717" y2="1172.3732" gradientTransform="matrix(0.7346 0.6785 -0.6785 0.7346 889.5976 -854.9483)">
		<stop  offset="0" style="stop-color:#2BCC38"/>
		<stop  offset="1" style="stop-color:#0B6CA3"/>
	</linearGradient>
	<path class="st9" d="M642.4,313.2c-31.5-8.1-39,39.5-43.5,68.7c-12.4,86.2-30.5,169.5-60.8,245.3h57.4
		c11.6-20.5,23.3-41.5,35.6-62.6c9.6-16.3,23.3-37,40.4-29.3c15.7,6.9,23.8,22.6,28.4,40.8V366.7C686.4,341,668.6,319.8,642.4,313.2
		z"/>
	
		<linearGradient id="SVGID_7_" gradientUnits="userSpaceOnUse" x1="1653.2292" y1="-53.4344" x2="1763.8292" y2="-53.4344" gradientTransform="matrix(0.2989 -0.9543 0.9543 0.2989 199.9524 2235.7798)">
		<stop  offset="0" style="stop-color:#2BCC38"/>
		<stop  offset="1" style="stop-color:#0B6CA3"/>
	</linearGradient>
	<path class="st10" d="M671.6,535.3c-17.1-7.7-30.8,13-40.4,29.3c-12.3,21.2-24,42.1-35.6,62.6H700v-51.1
		C695.4,557.9,687.3,542.2,671.6,535.3z"/>
	
		<linearGradient id="SVGID_8_" gradientUnits="userSpaceOnUse" x1="959.4584" y1="-308.7782" x2="1607.6691" y2="-308.7782" gradientTransform="matrix(-0.2045 -0.9789 0.9789 -0.2045 1084.9534 1477.692)">
		<stop  offset="0" style="stop-color:#2BCC38"/>
		<stop  offset="1" style="stop-color:#0B6CA3"/>
	</linearGradient>
	<path class="st11" d="M640.7,65c-56.5-49.2-117.8-78.5-185.3-86.2c-39.1-4.1-77.8,0-114.4,17.1c-30.5,14.2-63.7,35.4-71.9,77.3
		c-7.2,36.6,15.4,64.3,38,85c60.3,55.7,113.7,118.8,138.7,203.4c25,83.4,17.8,174.1-10.6,255.1c-1.3,3.6-2.6,7.1-3.9,10.6h32.6
		c32.2-84,42.8-176.2,23.7-267.7c-16.4-77.3-48.3-141.2-81.5-209.9c-9.2-19.1-18.2-41.1-12-63.1c14.7-53.3,71.9-48.8,111-41.1
		c60.3,11.8,110.6,46.8,157.2,93.2c13.7,13.6,26.3,28,37.7,43v-54.9C682.2,104.7,662.5,84,640.7,65z"/>
	
		<linearGradient id="SVGID_9_" gradientUnits="userSpaceOnUse" x1="700.2733" y1="255.3392" x2="849.1343" y2="255.3392" gradientTransform="matrix(0.9657 0.2595 -0.2595 0.9657 -43.0363 -425.7728)">
		<stop  offset="0" style="stop-color:#2BCC38"/>
		<stop  offset="1" style="stop-color:#0B6CA3"/>
	</linearGradient>
	<path class="st12" d="M628.7-23.6H574c19.8,11.2,39.2,24.4,58.2,39.5C657.1,35.6,679.6,57.5,700,81v-39
		c-17.1-18.4-35.4-35.8-54.8-52.3C639.7-14.8,634.2-19.3,628.7-23.6z"/>
	
		<linearGradient id="SVGID_10_" gradientUnits="userSpaceOnUse" x1="-31.0831" y1="371.855" x2="592.5701" y2="371.855" gradientTransform="matrix(-0.1424 0.9898 -0.9898 -0.1424 598.734 74.7139)">
		<stop  offset="0" style="stop-color:#2BCC38"/>
		<stop  offset="1" style="stop-color:#0B6CA3"/>
	</linearGradient>
	<path class="st13" d="M19.7,246.9c11,78.1,52.4,146.4,114.4,175.3c38,17.9,77.4,21.6,117.8,32.9c41.5,11.8,54.8,66.3,46.2,111.5
		c-4.3,22.1-11.2,42.3-20.2,60.6h45.9c18.2-37.4,28.8-78.9,27.7-122.4c-2.1-63.1-39.7-135.1-96.3-133.8
		c-60.6,1.2-130.2,3.3-170.6-65.1C46,241.2,45.7,162.3,68.3,92.7c14.7-45.1,37.2-84,65.1-116.3H88.5C34.4,48.5,4.6,142.7,19.7,246.9
		z"/>
	
		<linearGradient id="SVGID_11_" gradientUnits="userSpaceOnUse" x1="-168.6022" y1="286.6681" x2="454.2654" y2="286.6681" gradientTransform="matrix(-0.1577 0.9875 -0.9875 -0.1577 455.6088 205.7279)">
		<stop  offset="0" style="stop-color:#2BCC38"/>
		<stop  offset="1" style="stop-color:#0B6CA3"/>
	</linearGradient>
	<path class="st14" d="M108.4,477.1c40.8,28.5,100,37.4,115.1,95.6c5,18.8-0.3,37.8-9.1,54.5H278c9-18.3,15.9-38.5,20.2-60.6
		c8.6-45.2-4.8-99.7-46.2-111.5c-40.4-11.4-79.8-15.1-117.8-32.9C72.1,393.3,30.6,325,19.7,246.9C4.6,142.7,34.4,48.5,88.5-23.6
		H52.1C39-4.5,27.1,16.3,16.6,38.6C-54.7,189.1-20.8,387.6,108.4,477.1z"/>
	
		<linearGradient id="SVGID_12_" gradientUnits="userSpaceOnUse" x1="116.8015" y1="177.1393" x2="785.9937" y2="177.1393" gradientTransform="matrix(-0.5517 -0.834 0.834 -0.5517 344.1524 779.3241)">
		<stop  offset="0" style="stop-color:#2BCC38"/>
		<stop  offset="1" style="stop-color:#0B6CA3"/>
	</linearGradient>
	<path class="st15" d="M68.3,92.7C45.7,162.3,46,241.2,84.8,305.9c40.4,68.3,110,66.3,170.6,65.1c56.5-1.2,94.2,70.8,96.3,133.8
		c1.2,43.6-9.5,85.1-27.7,122.4h38.4c34.4-74.8,43.5-161.2,6.7-236.3c-25.7-52.5-69.5-89.9-119.2-95.6c-49.7-6.1-112.4-3.3-136-65.5
		c-35.7-94.3,6.3-190.7,70.3-253.4h-50.8C105.5,8.7,83,47.6,68.3,92.7z"/>
	
		<linearGradient id="SVGID_13_" gradientUnits="userSpaceOnUse" x1="-330.0723" y1="210.5327" x2="341.6835" y2="210.5327" gradientTransform="matrix(0.1373 0.9905 -0.9905 0.1373 278.7435 273.3765)">
		<stop  offset="0" style="stop-color:#2BCC38"/>
		<stop  offset="1" style="stop-color:#0B6CA3"/>
	</linearGradient>
	<path class="st16" d="M28.9,475.1c27.1,37,56.9,64.7,81.5,105c8.7,14.2,11.1,32.1,4.7,47.2h99.2c8.8-16.7,14.1-35.7,9.1-54.5
		c-15.1-58.2-74.3-67.1-115.1-95.6c-129.1-89.5-163.1-288-91.8-438.5C27.1,16.3,39-4.5,52.1-23.6H17.5
		C-14.7,27.5-37.6,87.2-47.8,153.7C-66,271.7-35.8,385.6,28.9,475.1z"/>
	
		<linearGradient id="SVGID_14_" gradientUnits="userSpaceOnUse" x1="1321.4674" y1="201.881" x2="1847.6238" y2="201.881" gradientTransform="matrix(-0.9842 -0.1769 0.1769 -0.9842 1927.6833 766.1473)">
		<stop  offset="0" style="stop-color:#2BCC38"/>
		<stop  offset="1" style="stop-color:#0B6CA3"/>
	</linearGradient>
	<path class="st17" d="M574-23.6H257.2c-18.1,12.8-35,28.6-49.9,47.6c-25.7,32.9-46.9,75.7-36.3,121.6c10.3,44.7,49.3,61,82.9,74
		c64.4,25.6,124,76.1,152.1,150.5c32.6,85.3,24.3,177.4-9.3,257.1h34.5c1.3-3.5,2.7-7,3.9-10.6c28.4-81,35.6-171.7,10.6-255.1
		c-25-84.6-78.4-147.7-138.7-203.4c-22.6-20.7-45.2-48.4-38-85c8.2-41.9,41.5-63.1,71.9-77.3c36.7-17.1,75.4-21.2,114.4-17.1
		c67.5,7.7,128.8,37,185.3,86.2c21.7,19,41.4,39.6,59.3,61.7V81c-20.4-23.5-42.9-45.4-67.8-65.2C613.2,0.7,593.8-12.5,574-23.6z"/>
	
		<linearGradient id="SVGID_15_" gradientUnits="userSpaceOnUse" x1="686.5379" y1="-906.0016" x2="715.6575" y2="-906.0016" gradientTransform="matrix(0.6503 -0.7597 0.7597 0.6503 905.0193 1121.2797)">
		<stop  offset="0" style="stop-color:#2BCC38"/>
		<stop  offset="1" style="stop-color:#0B6CA3"/>
	</linearGradient>
	<path class="st18" d="M645.2-10.2c19.4,16.5,37.7,33.9,54.8,52.3V6.5C689.7-4,679-14.1,668-23.6h-39.4
		C634.2-19.3,639.7-14.8,645.2-10.2z"/>
</g>
<linearGradient id="SVGID_16_" gradientUnits="userSpaceOnUse" x1="193" y1="390" x2="193" y2="662">
	<stop  offset="0" style="stop-color:#3F7DA6;stop-opacity:0"/>
	<stop  offset="0.4459" style="stop-color:#3F7DA6"/>
	<stop  offset="1" style="stop-color:#3F7DA6"/>
</linearGradient>
<rect x="-314" y="390" class="st19" width="1014" height="272"/>
</svg>
