<?xml version="1.0" encoding="utf-8"?>
<!-- Generator: Adobe Illustrator 22.0.0, SVG Export Plug-In . SVG Version: 6.00 Build 0)  -->
<svg version="1.1" id="Layer_1" xmlns="http://www.w3.org/2000/svg" xmlns:xlink="http://www.w3.org/1999/xlink" x="0px" y="0px"
	 viewBox="0 0 960 595.3" style="enable-background:new 0 0 960 595.3;" xml:space="preserve">
<style type="text/css">
	.st0{display:none;}
	.st1{display:inline;}
	.st2{font-family:'ArialMT';}
	.st3{font-size:29.0672px;}
	.st4{fill:url(#SVGID_1_);}
	.st5{fill:url(#SVGID_2_);}
	.st6{fill:url(#SVGID_3_);}
	.st7{fill:url(#SVGID_4_);}
	.st8{fill:url(#SVGID_5_);}
	.st9{fill:url(#SVGID_6_);}
	.st10{fill:url(#SVGID_7_);}
	.st11{fill:url(#SVGID_8_);}
	.st12{fill:url(#SVGID_9_);}
	.st13{opacity:0.6;fill:url(#SVGID_10_);}
	.st14{opacity:0.4;fill:url(#SVGID_11_);}
	.st15{opacity:0.8;fill:url(#SVGID_12_);}
	.st16{opacity:0.2;fill:url(#SVGID_13_);}
	.st17{fill:url(#SVGID_14_);}
	.st18{fill:url(#SVGID_15_);}
	.st19{fill:url(#SVGID_16_);}
</style>
<g id="Layer_4" class="st0">
</g>
<g id="Layer_3" class="st0">
</g>
<g id="Layer_2_1_" class="st0">
	<text transform="matrix(1.1766 0 0 1 309.1055 18.3687)" class="st1 st2 st3">1024x139</text>
	<text transform="matrix(1.1766 0 0 1 275.9365 658.9395)" class="st2 st3" style="display:inline;fill:#FFFFFF;">1024x139 </text>
</g>
<g>
	
		<linearGradient id="SVGID_1_" gradientUnits="userSpaceOnUse" x1="-83.2829" y1="302.4637" x2="1044.0082" y2="302.4637" gradientTransform="matrix(0.9533 -0.302 0.302 0.9533 -67.4261 158.5313)">
		<stop  offset="0" style="stop-color:#2BCC38"/>
		<stop  offset="1" style="stop-color:#0B6CA3"/>
	</linearGradient>
	<rect x="-6.3" y="-23.6" class="st4" width="976.3" height="650.9"/>
	
		<linearGradient id="SVGID_2_" gradientUnits="userSpaceOnUse" x1="2795.3225" y1="-144.7142" x2="2817.7922" y2="-144.7142" gradientTransform="matrix(-0.703 0.7112 -0.7112 -0.703 2831.636 -2113.9507)">
		<stop  offset="0" style="stop-color:#2BCC38"/>
		<stop  offset="1" style="stop-color:#0B6CA3"/>
	</linearGradient>
	<path class="st5" d="M970-23.6h-32C949-14.1,959.7-4,970,6.5V-23.6z"/>
	
		<linearGradient id="SVGID_3_" gradientUnits="userSpaceOnUse" x1="343.0224" y1="383.1296" x2="950.3629" y2="383.1296" gradientTransform="matrix(-0.2372 0.9715 -0.9715 -0.2372 1068.3176 -244.6404)">
		<stop  offset="0" style="stop-color:#2BCC38"/>
		<stop  offset="1" style="stop-color:#0B6CA3"/>
	</linearGradient>
	<path class="st6" d="M676.1,370.1C648,295.7,588.4,245.3,524,219.6c-33.6-13-72.6-29.3-82.9-74c-10.6-46,10.6-88.7,36.3-121.6
		c14.9-19,31.7-34.8,49.9-47.6h-73.1c-64,62.7-106,159.1-70.3,253.4c23.6,62.2,86.3,59.4,136,65.5c49.7,5.7,93.5,43.1,119.2,95.6
		c36.7,75.1,27.7,161.5-6.7,236.3h34.4C700.4,547.6,708.7,455.4,676.1,370.1z"/>
	
		<linearGradient id="SVGID_4_" gradientUnits="userSpaceOnUse" x1="1413.6708" y1="-244.2967" x2="1898.454" y2="-244.2967" gradientTransform="matrix(8.800000e-02 -0.9961 0.9961 8.800000e-02 965.5149 2063.7957)">
		<stop  offset="0" style="stop-color:#2BCC38"/>
		<stop  offset="1" style="stop-color:#0B6CA3"/>
	</linearGradient>
	<path class="st7" d="M819.6,145.2c-30.5-1.6-37,41.1-32.9,71.2c10.3,76.9,21.9,149.7,19.5,225.8c-1.8,64.4-14.7,126.3-37.8,185.1
		h39.7c30.3-75.8,48.4-159.1,60.8-245.3c4.5-29.3,12-76.9,43.5-68.7c26.1,6.7,43.9,27.8,57.6,53.5V259.8
		C932,199.6,883.1,148.4,819.6,145.2z"/>
	
		<linearGradient id="SVGID_5_" gradientUnits="userSpaceOnUse" x1="1844.5814" y1="658.2557" x2="2218.1279" y2="658.2557" gradientTransform="matrix(-0.9404 0.34 -0.34 -0.9404 2950.7632 235.2792)">
		<stop  offset="0" style="stop-color:#2BCC38"/>
		<stop  offset="1" style="stop-color:#0B6CA3"/>
	</linearGradient>
	<path class="st8" d="M932.3,138.7c-46.6-46.4-96.9-81.4-157.2-93.2c-39.1-7.7-96.3-12.2-111,41.1c-6.2,22,2.7,43.9,12,63.1
		c33.2,68.7,65.1,132.6,81.5,209.9c19.1,91.5,8.4,183.7-23.7,267.7h34.5c23.1-58.8,36-120.7,37.8-185.1
		c2.4-76.1-9.3-148.9-19.5-225.8c-4.1-30.1,2.4-72.8,32.9-71.2c63.5,3.2,112.4,54.4,150.4,114.6v-78.1
		C958.6,166.7,946.1,152.3,932.3,138.7z"/>
	
		<linearGradient id="SVGID_6_" gradientUnits="userSpaceOnUse" x1="831.2265" y1="1077.3831" x2="1064.561" y2="1077.3831" gradientTransform="matrix(0.7346 0.6785 -0.6785 0.7346 924.0996 -943.1533)">
		<stop  offset="0" style="stop-color:#2BCC38"/>
		<stop  offset="1" style="stop-color:#0B6CA3"/>
	</linearGradient>
	<path class="st9" d="M912.4,313.2c-31.5-8.1-39,39.5-43.5,68.7c-12.4,86.2-30.5,169.5-60.8,245.3h57.4
		c11.6-20.5,23.3-41.5,35.6-62.6c9.6-16.3,23.3-37,40.4-29.3c15.7,6.9,23.8,22.6,28.4,40.8V366.7C956.4,341,938.6,319.8,912.4,313.2
		z"/>
	
		<linearGradient id="SVGID_7_" gradientUnits="userSpaceOnUse" x1="1825.074" y1="80.1636" x2="1935.674" y2="80.1636" gradientTransform="matrix(0.2989 -0.9543 0.9543 0.2989 291.0954 2359.8389)">
		<stop  offset="0" style="stop-color:#2BCC38"/>
		<stop  offset="1" style="stop-color:#0B6CA3"/>
	</linearGradient>
	<path class="st10" d="M941.6,535.3c-17.1-7.7-30.8,13-40.4,29.3c-12.3,21.2-24,42.1-35.6,62.6H970v-51.1
		C965.4,557.9,957.3,542.2,941.6,535.3z"/>
	
		<linearGradient id="SVGID_8_" gradientUnits="userSpaceOnUse" x1="1060.8303" y1="-171.7412" x2="1709.041" y2="-171.7412" gradientTransform="matrix(-0.2045 -0.9789 0.9789 -0.2045 1241.5385 1604.949)">
		<stop  offset="0" style="stop-color:#2BCC38"/>
		<stop  offset="1" style="stop-color:#0B6CA3"/>
	</linearGradient>
	<path class="st11" d="M910.7,65c-56.5-49.2-117.8-78.5-185.3-86.2c-39.1-4.1-77.8,0-114.4,17.1c-30.5,14.2-63.7,35.4-71.9,77.3
		c-7.2,36.6,15.4,64.3,38,85c60.3,55.7,113.7,118.8,138.7,203.4c25,83.4,17.8,174.1-10.6,255.1c-1.3,3.6-2.6,7.1-3.9,10.6h32.6
		c32.2-84,42.8-176.2,23.7-267.7c-16.4-77.3-48.3-141.2-81.5-209.9c-9.2-19.1-18.2-41.1-12-63.1c14.7-53.3,71.9-48.8,111-41.1
		c60.3,11.8,110.6,46.8,157.2,93.2c13.7,13.6,26.3,28,37.7,43v-54.9C952.2,104.7,932.5,84,910.7,65z"/>
	
		<linearGradient id="SVGID_9_" gradientUnits="userSpaceOnUse" x1="965.4825" y1="219.0061" x2="1114.3435" y2="219.0061" gradientTransform="matrix(0.9657 0.2595 -0.2595 0.9657 -38.5773 -459.5078)">
		<stop  offset="0" style="stop-color:#2BCC38"/>
		<stop  offset="1" style="stop-color:#0B6CA3"/>
	</linearGradient>
	<path class="st12" d="M898.7-23.6H844c19.8,11.2,39.2,24.4,58.2,39.5C927.1,35.6,949.6,57.5,970,81v-39
		c-17.1-18.4-35.4-35.8-54.8-52.3C909.7-14.8,904.2-19.3,898.7-23.6z"/>
	
		<linearGradient id="SVGID_10_" gradientUnits="userSpaceOnUse" x1="78.9806" y1="233.2805" x2="702.6337" y2="233.2805" gradientTransform="matrix(-0.1424 0.9898 -0.9898 -0.1424 747.246 -53.9601)">
		<stop  offset="0" style="stop-color:#2BCC38"/>
		<stop  offset="1" style="stop-color:#0B6CA3"/>
	</linearGradient>
	<path class="st13" d="M289.7,246.9c11,78.1,52.4,146.4,114.4,175.3c38,17.9,77.4,21.6,117.8,32.9c41.5,11.8,54.8,66.3,46.2,111.5
		c-4.3,22.1-11.2,42.3-20.2,60.6h45.9c18.2-37.4,28.8-78.9,27.7-122.4c-2.1-63.1-39.7-135.1-96.3-133.8
		c-60.6,1.2-130.2,3.3-170.6-65.1c-38.7-64.7-39-143.6-16.4-213.2c14.7-45.1,37.2-84,65.1-116.3h-44.9
		C304.4,48.5,274.6,142.7,289.7,246.9z"/>
	
		<linearGradient id="SVGID_11_" gradientUnits="userSpaceOnUse" x1="-60.6796" y1="148.4216" x2="562.188" y2="148.4216" gradientTransform="matrix(-0.1577 0.9875 -0.9875 -0.1577 606.1098 77.3529)">
		<stop  offset="0" style="stop-color:#2BCC38"/>
		<stop  offset="1" style="stop-color:#0B6CA3"/>
	</linearGradient>
	<path class="st14" d="M378.4,477.1c40.8,28.5,100,37.4,115.1,95.6c5,18.8-0.3,37.8-9.1,54.5H548c9-18.3,15.9-38.5,20.2-60.6
		c8.6-45.2-4.8-99.7-46.2-111.5c-40.4-11.4-79.8-15.1-117.8-32.9c-62-28.9-103.5-97.2-114.4-175.3
		c-15.1-104.2,14.7-198.3,68.9-270.5h-36.4c-13.1,19.1-25,39.9-35.5,62.2C215.3,189.1,249.2,387.6,378.4,477.1z"/>
	
		<linearGradient id="SVGID_12_" gradientUnits="userSpaceOnUse" x1="169.558" y1="293.9076" x2="838.7502" y2="293.9076" gradientTransform="matrix(-0.5517 -0.834 0.834 -0.5517 545.8734 887.7441)">
		<stop  offset="0" style="stop-color:#2BCC38"/>
		<stop  offset="1" style="stop-color:#0B6CA3"/>
	</linearGradient>
	<path class="st15" d="M338.3,92.7c-22.6,69.6-22.3,148.5,16.4,213.2c40.4,68.3,110,66.3,170.6,65.1c56.5-1.2,94.2,70.8,96.3,133.8
		c1.2,43.6-9.5,85.1-27.7,122.4h38.4c34.4-74.8,43.5-161.2,6.7-236.3c-25.7-52.5-69.5-89.9-119.2-95.6c-49.7-6.1-112.4-3.3-136-65.5
		c-35.7-94.3,6.3-190.7,70.3-253.4h-50.8C375.5,8.7,353,47.6,338.3,92.7z"/>
	
		<linearGradient id="SVGID_13_" gradientUnits="userSpaceOnUse" x1="-180.8492" y1="71.8546" x2="490.9066" y2="71.8546" gradientTransform="matrix(0.1373 0.9905 -0.9905 0.1373 390.8945 144.6115)">
		<stop  offset="0" style="stop-color:#2BCC38"/>
		<stop  offset="1" style="stop-color:#0B6CA3"/>
	</linearGradient>
	<path class="st16" d="M298.9,475.1c27.1,37,56.9,64.7,81.5,105c8.7,14.2,11.1,32.1,4.7,47.2h99.2c8.8-16.7,14.1-35.7,9.1-54.5
		c-15.1-58.2-74.3-67.1-115.1-95.6c-129.1-89.5-163.1-288-91.8-438.5c10.5-22.4,22.4-43.1,35.5-62.2h-34.6
		c-32.2,51.1-55.1,110.9-65.4,177.4C204,271.7,234.2,385.6,298.9,475.1z"/>
	
		<linearGradient id="SVGID_14_" gradientUnits="userSpaceOnUse" x1="1313.6716" y1="226.6485" x2="1839.8279" y2="226.6485" gradientTransform="matrix(-0.9842 -0.1769 0.1769 -0.9842 2185.6294 789.1443)">
		<stop  offset="0" style="stop-color:#2BCC38"/>
		<stop  offset="1" style="stop-color:#0B6CA3"/>
	</linearGradient>
	<path class="st17" d="M844-23.6H527.2c-18.1,12.8-35,28.6-49.9,47.6c-25.7,32.9-46.9,75.7-36.3,121.6c10.3,44.7,49.3,61,82.9,74
		c64.4,25.6,124,76.1,152.1,150.5c32.6,85.3,24.3,177.4-9.3,257.1h34.5c1.3-3.5,2.7-7,3.9-10.6c28.4-81,35.6-171.7,10.6-255.1
		c-25-84.6-78.4-147.7-138.7-203.4c-22.6-20.7-45.2-48.4-38-85c8.2-41.9,41.5-63.1,71.9-77.3c36.7-17.1,75.4-21.2,114.4-17.1
		c67.5,7.7,128.8,37,185.3,86.2c21.7,19,41.4,39.6,59.3,61.7V81c-20.4-23.5-42.9-45.4-67.8-65.2C883.2,0.7,863.8-12.5,844-23.6z"/>
	
		<linearGradient id="SVGID_15_" gradientUnits="userSpaceOnUse" x1="907.5768" y1="-799.6473" x2="936.6964" y2="-799.6473" gradientTransform="matrix(0.6503 -0.7597 0.7597 0.6503 950.4803 1220.0406)">
		<stop  offset="0" style="stop-color:#2BCC38"/>
		<stop  offset="1" style="stop-color:#0B6CA3"/>
	</linearGradient>
	<path class="st18" d="M915.2-10.2c19.4,16.5,37.7,33.9,54.8,52.3V6.5C959.7-4,949-14.1,938-23.6h-39.4
		C904.2-19.3,909.7-14.8,915.2-10.2z"/>
</g>
<linearGradient id="SVGID_16_" gradientUnits="userSpaceOnUse" x1="489" y1="390" x2="489" y2="662">
	<stop  offset="0" style="stop-color:#3F7DA6;stop-opacity:0"/>
	<stop  offset="0.4459" style="stop-color:#3F7DA6"/>
	<stop  offset="1" style="stop-color:#3F7DA6"/>
</linearGradient>
<rect x="-18" y="390" class="st19" width="1014" height="272"/>
</svg>
